<svg width="32" height="32" viewBox="0 0 32 32" fill="none" xmlns="http://www.w3.org/2000/svg">
<path fill-rule="evenodd" clip-rule="evenodd" d="M0.984615 16C0.984615 7.70723 7.70723 0.984615 16 0.984615C24.2928 0.984615 31.0154 7.70723 31.0154 16C31.0154 24.2928 24.2928 31.0154 16 31.0154C7.70723 31.0154 0.984615 24.2928 0.984615 16ZM16 0C7.16344 0 0 7.16344 0 16C0 24.8366 7.16344 32 16 32C24.8366 32 32 24.8366 32 16C32 7.16344 24.8366 0 16 0ZM18.5685 9.03047L25.5628 16.0247L18.5685 23.019L17.8723 22.3228L23.6784 16.5166H7.14335V15.532H23.6776L17.8723 9.7267L18.5685 9.03047Z" fill="black"/>
</svg>
