<svg width="32" height="32" viewBox="0 0 32 32" fill="none" xmlns="http://www.w3.org/2000/svg">
<path fill-rule="evenodd" clip-rule="evenodd" d="M14.5687 23.0137L13.8725 22.3174L20.1705 16.0194L13.8725 9.72136L14.5687 9.02514L21.563 16.0194L14.5687 23.0137Z" fill="#BBBBBB"/>
<path d="M14.5687 23.0137L14.2152 23.3672L14.5687 23.7208L14.9223 23.3672L14.5687 23.0137ZM13.8725 22.3174L13.5189 21.9639L13.1654 22.3174L13.5189 22.671L13.8725 22.3174ZM20.1705 16.0194L20.5241 16.373L20.8776 16.0194L20.5241 15.6659L20.1705 16.0194ZM13.8725 9.72136L13.5189 9.36781L13.1654 9.72136L13.5189 10.0749L13.8725 9.72136ZM14.5687 9.02514L14.9223 8.67158L14.5687 8.31803L14.2152 8.67158L14.5687 9.02514ZM21.563 16.0194L21.9165 16.373L22.2701 16.0194L21.9165 15.6659L21.563 16.0194ZM13.5189 22.671L14.2152 23.3672L14.9223 22.6601L14.226 21.9639L13.5189 22.671ZM19.817 15.6659L13.5189 21.9639L14.226 22.671L20.5241 16.373L19.817 15.6659ZM13.5189 10.0749L19.817 16.373L20.5241 15.6659L14.226 9.36781L13.5189 10.0749ZM14.2152 8.67158L13.5189 9.36781L14.226 10.0749L14.9223 9.37869L14.2152 8.67158ZM14.9223 23.3672L21.9165 16.373L21.2094 15.6659L14.2152 22.6601L14.9223 23.3672ZM21.9165 15.6659L14.9223 8.67158L14.2152 9.37869L21.2094 16.373L21.9165 15.6659Z" fill="#BBBBBB"/>
</svg>
