<svg width="24" height="24" viewBox="0 0 24 24" fill="none" xmlns="http://www.w3.org/2000/svg">
<path fill-rule="evenodd" clip-rule="evenodd" d="M16.6127 10.879C16.9596 11.4786 17.4584 11.9762 18.059 12.3215L18.6129 12.0003V5.80826L18.059 5.49072C17.4584 5.83603 16.9596 6.33358 16.6127 6.93322C16.2658 7.53285 16.0831 8.21335 16.0831 8.90611C16.0831 9.59886 16.2658 10.2794 16.6127 10.879ZM17.0975 7.60949C17.2786 7.20121 17.5433 6.8354 17.8744 6.53564V11.2766C17.5433 10.9768 17.2786 10.611 17.0975 10.2027C16.9164 9.79445 16.8228 9.35275 16.8228 8.90611C16.8228 8.45946 16.9164 8.01776 17.0975 7.60949ZM14.6654 15.0537C13.9731 15.0519 13.2934 14.8685 12.6941 14.5219C12.0947 14.1753 11.5968 13.6775 11.25 13.0783L11.5676 12.5245H17.7596L18.0808 13.0783C17.7337 13.6772 17.2357 14.1748 16.6365 14.5214C16.0373 14.868 15.3577 15.0515 14.6654 15.0537ZM12.295 13.2629C12.5947 13.594 12.9605 13.8587 13.3688 14.0398C13.7771 14.2209 14.2188 14.3145 14.6654 14.3145C15.1121 14.3145 15.5538 14.2209 15.962 14.0398C16.3703 13.8587 16.7361 13.594 17.0359 13.2629H12.295ZM11.8628 18.2956L12.0991 18.9971L14.653 18.1423L17.2495 19.0081L17.4831 18.3076L15.0345 17.4911V15.5781H14.296V17.487L11.8628 18.2956ZM8.92775 10.5787H5.35352V9.84019H10.7184V9.04634H5.35352V8.30788H11.0877L11.4569 8.67711V10.2094L11.0877 10.5787H9.66622V18.6463H8.92775V10.5787Z" fill="black"/>
</svg>
