<svg width="24" height="24" viewBox="0 0 24 24" fill="none" xmlns="http://www.w3.org/2000/svg">
<path d="M0 12C0 5.37258 5.37258 0 12 0C18.6274 0 24 5.37258 24 12C24 18.6274 18.6274 24 12 24C5.37258 24 0 18.6274 0 12Z" fill="white"/>
<path d="M8.13018 17.65L7.61325 17.2807L8.35171 12.898L5.16895 9.79273L5.37202 9.16504L9.77324 8.52627L11.7413 4.53857H12.4133L14.3813 8.52627L18.764 9.15765L18.9671 9.78534L15.7843 12.8906L16.5228 17.2733L15.9874 17.6426L12.0514 15.5749L8.13018 17.65ZM6.21387 9.77058L8.99787 12.4881L9.10494 12.813L8.44772 16.6493L11.8926 14.8364H12.236L15.6809 16.6493L15.0237 12.813L15.1308 12.4881L17.9148 9.77058L14.0637 9.20934L13.7868 9.00627L12.0625 5.51704L10.3419 9.00627L10.0649 9.20934L6.21387 9.77058Z" fill="#0B1F2F"/>
</svg>
