<svg width="11" height="16" viewBox="0 0 11 16" fill="none" xmlns="http://www.w3.org/2000/svg">
<path d="M5.21216 0C2.3378 0 0 2.36575 0 5.27453C0 6.41574 0.681271 7.88819 1.12331 8.7189L4.89763 15.8122C4.96094 15.9279 5.0813 16 5.21206 16C5.34282 16 5.4633 15.9281 5.52661 15.8124L9.30093 8.71902C9.74297 7.88828 10.4242 6.41596 10.4242 5.27466C10.4242 2.3659 8.08655 0 5.21216 0ZM5.21216 0.727457C7.69798 0.727457 9.7054 2.7589 9.7054 5.27447C9.7054 6.08822 9.08206 7.6014 8.67199 8.37212L5.21219 14.8743L1.7524 8.37212C1.34232 7.6014 0.718982 6.08822 0.718982 5.27447C0.718982 2.7589 2.72634 0.727457 5.21216 0.727457ZM5.21216 2.54626C3.72753 2.54626 2.51621 3.77207 2.51621 5.27447C2.51621 6.77687 3.72753 8.00268 5.21216 8.00268C6.69679 8.00268 7.9081 6.77687 7.9081 5.27447C7.9081 3.77207 6.69679 2.54626 5.21216 2.54626ZM5.21216 3.27372C6.30825 3.27372 7.18925 4.1651 7.18925 5.27447C7.18925 6.38368 6.30841 7.27522 5.21216 7.27522C4.11606 7.27522 3.23507 6.38384 3.23507 5.27447C3.23507 4.16526 4.1159 3.27372 5.21216 3.27372Z" fill="#707070"/>
</svg>
