<svg width="169" height="33" viewBox="0 0 169 33" xmlns="http://www.w3.org/2000/svg">
<path d="M140.998 21.0696C140.468 22.4693 139.872 24.3618 139.872 24.3618H139.805C139.805 24.3618 139.174 22.4693 138.645 21.0696L134.964 10.5721H134.863H134.787H131.787H131.699H128.791V5.25913H126.11V10.5721H123.631V12.7254H126.11V24.2665C126.11 26.6476 127.699 27.5255 129.879 27.5255C130.674 27.5255 131.401 27.4261 132.031 27.2978V25.0119H131.93C131.632 25.1113 131.035 25.2397 130.51 25.2397C129.417 25.2397 128.791 24.8504 128.791 23.6744V12.7254H131.699H133.115L138.384 26.9375L137.725 28.5981C137.065 30.2296 135.766 30.652 134.64 30.652C133.745 30.652 133.72 30.4905 133.359 30.2918H133.228V32.6397C133.955 32.9337 134.619 33 135.645 33C137.729 33 139.052 32.2836 140.439 28.7968L147.751 10.5762H144.906L140.998 21.0696Z"/>
<path d="M91.5824 23.4797H91.5152L83.8424 4.1162H80.0396V27.422H82.7204V8.25724H82.7877C82.7877 8.25724 83.3843 10.0172 83.8466 11.1891L90.3302 27.422H92.6119L99.0956 11.1891C99.5242 10.0793 100.155 8.25724 100.155 8.25724H100.222V27.4261H103.066V4.1162H99.1965L91.5824 23.4797Z"/>
<path d="M114.244 10.1497C109.382 10.1497 106.138 14.1251 106.138 19.0157C106.138 23.9063 109.18 27.8817 114.408 27.8817C118.278 27.8817 120.959 25.8277 121.753 22.2084H119.139C118.542 24.4901 116.891 25.6621 114.408 25.6621C110.966 25.6621 109.084 23.0532 108.882 19.6327H122.114C122.114 14.0589 119.37 10.1497 114.244 10.1497ZM108.949 17.645C109.344 14.5806 111.067 12.2327 114.244 12.2327C117.32 12.2327 119.072 14.2866 119.24 17.645H108.949Z"/>
<path d="M152.133 10.5721H149.452V27.4262H152.133V10.5721Z"/>
<path d="M152.133 4.1162H149.452V7.3752H152.133V4.1162Z"/>
<path d="M162.68 17.4835C159.735 16.8955 158.083 16.5393 158.083 14.7131C158.083 13.3756 159.075 12.2989 161.525 12.2989C164.071 12.2989 165.294 13.2762 165.559 15.4917H168.302C167.907 12.1995 165.823 10.2118 161.588 10.2118C157.617 10.2118 155.436 12.038 155.436 14.8415C155.436 18.527 158.445 19.2103 161.819 19.8936C164.962 20.5437 166.286 21.0365 166.286 22.9248C166.286 24.4902 165.126 25.6952 162.315 25.6952C159.768 25.6952 157.785 24.8794 157.419 21.9476H154.675C154.94 25.7283 157.554 27.9148 162.252 27.9148C166.189 27.9148 169 26.188 169 22.7965C169 18.9163 166.122 18.1668 162.68 17.4835Z"/>
<path d="M64.0132 0H36.5573C34.2967 0 32.1032 0.658426 30.246 1.87175C29.7291 2.20718 29.2585 2.60058 28.8131 3.0271L15.9718 15.442C15.6482 15.7318 15.4843 15.7815 15.0137 15.7815H0V31.5631H16.0138L16.0222 17.5539C16.0222 17.5208 16.0264 17.4835 16.0306 17.4504C16.0306 17.4504 16.0306 17.4504 16.0306 17.4462C16.0306 17.1025 16.3205 16.8126 16.6567 16.7919C16.6651 16.7919 16.6735 16.7878 16.6777 16.7878H30.8805L46.6758 1.22161C46.9321 0.952441 47.2094 0.973146 47.4279 1.01456C47.4405 1.01456 47.4489 1.0187 47.4615 1.02284C47.4699 1.02284 47.4741 1.02698 47.4825 1.02698C47.4909 1.03112 47.4951 1.03112 47.5035 1.03526C47.5456 1.04768 47.5834 1.06425 47.6254 1.08081C47.638 1.08495 47.6464 1.0891 47.6548 1.09738C47.6884 1.11394 47.7178 1.13465 47.7473 1.15949C47.7557 1.16778 47.7725 1.1802 47.7725 1.1802C47.8691 1.2713 48.0456 1.47421 48.0456 1.70611C48.0456 1.71025 48.0456 1.71439 48.0456 1.71439V14.3819V31.5672H64.072L64.0174 15.9844V0H64.0132Z"/>
</svg>
