<?xml version="1.0" encoding="iso-8859-1"?>
<!-- Generator: Adobe Illustrator 19.0.0, SVG Export Plug-In . SVG Version: 6.00 Build 0)  -->
<svg version="1.1" id="Layer_1" xmlns="http://www.w3.org/2000/svg" xmlns:xlink="http://www.w3.org/1999/xlink" x="0px" y="0px"
	 viewBox="0 0 512 512" style="enable-background:new 0 0 512 512;" xml:space="preserve">
<g>
	<g>
		<path d="M461.913,55.652H50.087C22.469,55.652,0,78.121,0,105.739v267.13c0,27.618,22.469,50.087,50.087,50.087h16.696v16.696
			c0,9.22,7.475,16.696,16.696,16.696s16.696-7.475,16.696-16.696v-16.696h311.652v16.696c0,9.22,7.475,16.696,16.696,16.696
			s16.696-7.475,16.696-16.696v-16.696h16.696c27.618,0,50.087-22.469,50.087-50.087v-267.13
			C512,78.121,489.531,55.652,461.913,55.652z M478.609,372.87c0,9.206-7.49,16.696-16.696,16.696H50.087
			c-9.206,0-16.696-7.49-16.696-16.696v-267.13c0-9.206,7.49-16.696,16.696-16.696h411.826c9.206,0,16.696,7.49,16.696,16.696
			V372.87z"/>
	</g>
</g>
<g>
	<g>
		<path d="M361.739,122.435H83.478c-9.22,0-16.696,7.475-16.696,16.696v200.348c0,9.22,7.475,16.696,16.696,16.696h278.261
			c9.22,0,16.696-7.475,16.696-16.696V139.13C378.435,129.91,370.96,122.435,361.739,122.435z M345.043,322.783h-244.87V155.826
			h244.87V322.783z"/>
	</g>
</g>
<g>
	<g>
		<circle cx="428.522" cy="139.13" r="16.696"/>
	</g>
</g>
<g>
	<g>
		<circle cx="428.522" cy="205.913" r="16.696"/>
	</g>
</g>
<g>
	<g>
		<path d="M445.217,256h-33.391c-9.22,0-16.696,7.475-16.696,16.696c0,9.22,7.475,16.696,16.696,16.696h33.391
			c9.22,0,16.696-7.475,16.696-16.696C461.913,263.475,454.438,256,445.217,256z"/>
	</g>
</g>
<g>
	<g>
		<path d="M445.217,322.783h-33.391c-9.22,0-16.696,7.475-16.696,16.696s7.475,16.696,16.696,16.696h33.391
			c9.22,0,16.696-7.475,16.696-16.696S454.438,322.783,445.217,322.783z"/>
	</g>
</g>
<g>
	<g>
		<path d="M294.957,189.217c-9.22,0-16.696,7.475-16.696,16.696v66.783c0,9.22,7.475,16.696,16.696,16.696
			s16.696-7.475,16.696-16.696v-66.783C311.652,196.693,304.177,189.217,294.957,189.217z"/>
	</g>
</g>
<g>
</g>
<g>
</g>
<g>
</g>
<g>
</g>
<g>
</g>
<g>
</g>
<g>
</g>
<g>
</g>
<g>
</g>
<g>
</g>
<g>
</g>
<g>
</g>
<g>
</g>
<g>
</g>
<g>
</g>
</svg>
