<svg width="32" height="32" viewBox="0 0 32 32" fill="none" xmlns="http://www.w3.org/2000/svg">
<path fill-rule="evenodd" clip-rule="evenodd" d="M7.65045 12.6868C7.65045 9.90808 9.90308 7.65545 12.6818 7.65545C15.4606 7.65545 17.7132 9.90808 17.7132 12.6868C17.7132 15.4656 15.4606 17.7182 12.6818 17.7182C9.90308 17.7182 7.65045 15.4656 7.65045 12.6868ZM12.6818 6.67084C9.35929 6.67084 6.66583 9.36429 6.66583 12.6868C6.66583 16.0094 9.35929 18.7028 12.6818 18.7028C14.1623 18.7028 15.5178 18.1681 16.5659 17.2812L24.489 25.1902L25.1846 24.4933L17.2632 16.5861C18.1579 15.536 18.6978 14.1745 18.6978 12.6868C18.6978 9.36429 16.0044 6.67084 12.6818 6.67084Z" fill="#BBBBBB"/>
</svg>
