<!-- <svg width="49" height="48" viewBox="0 0 49 48" fill="none" xmlns="http://www.w3.org/2000/svg">
<path d="M0.424316 24C0.424316 10.7452 11.1695 0 24.4243 0C37.6791 0 48.4243 10.7452 48.4243 24C48.4243 37.2548 37.6791 48 24.4243 48C11.1695 48 0.424316 37.2548 0.424316 24Z" fill="white"/>
<path d="M16.6846 36.2998L15.6508 35.5613L17.1277 26.7958L10.7622 20.5854L11.1683 19.33L19.9707 18.0525L23.9067 10.0771H25.2507L29.1867 18.0525L37.9522 19.3152L38.3583 20.5706L31.9928 26.781L33.4698 35.5465L32.399 36.285L24.5271 32.1496L16.6846 36.2998ZM12.8521 20.5411L18.42 25.9761L18.6341 26.626L17.3197 34.2985L24.2095 30.6727H24.8963L31.7861 34.2985L30.4716 26.626L30.6858 25.9761L36.2538 20.5411L28.5516 19.4186L27.9978 19.0125L24.5492 12.0341L21.108 19.0125L20.5542 19.4186L12.8521 20.5411Z" fill="#0B1F2F"/>
</svg> -->

<svg width="29" height="27" viewBox="0 0 29 27" fill="none" xmlns="http://www.w3.org/2000/svg">
<path d="M6.68465 26.2998L5.65079 25.5613L7.1277 16.7958L0.762207 10.5854L1.16835 9.33001L9.97074 8.05249L13.9067 0.0771484H15.2507L19.1867 8.05249L27.9522 9.31525L28.3583 10.5706L21.9928 16.781L23.4698 25.5465L22.399 26.285L14.5271 22.1496L6.68465 26.2998ZM2.85205 10.5411L8.42 15.9761L8.63414 16.626L7.31971 24.2985L14.2095 20.6727H14.8963L21.7861 24.2985L20.4716 16.626L20.6858 15.9761L26.2538 10.5411L18.5516 9.41863L17.9978 9.01248L14.5492 2.03406L11.108 9.01248L10.5542 9.41863L2.85205 10.5411Z" fill="#0B1F2F"/>
</svg>
