<svg width="29" height="27" viewBox="0 0 29 27" xmlns="http://www.w3.org/2000/svg">
<path d="M6.68465 26.2998L5.65079 25.5613L7.1277 16.7958L0.762207 10.5854L1.16835 9.33001L9.97074 8.05249L13.9067 0.0771484H15.2507L19.1867 8.05249L27.9522 9.31525L28.3583 10.5706L21.9928 16.781L23.4698 25.5465L22.399 26.285L14.5271 22.1496L6.68465 26.2998ZM2.85205 10.5411L8.42 15.9761L8.63414 16.626L7.31971 24.2985L14.2095 20.6727H14.8963L21.7861 24.2985L20.4716 16.626L20.6858 15.9761L26.2538 10.5411L18.5516 9.41863L17.9978 9.01248L14.5492 2.03406L11.108 9.01248L10.5542 9.41863L2.85205 10.5411Z" fill="#0B1F2F"/>
</svg>
