<svg width="32" height="32" viewBox="0 0 32 32" fill="none" xmlns="http://www.w3.org/2000/svg">
<path fill-rule="evenodd" clip-rule="evenodd" d="M15.9999 9.32568C12.2497 9.32568 8.85571 10.8458 6.39795 13.3036L6.77824 13.6839C9.13931 11.3228 12.3981 9.8635 15.9999 9.8635C19.6016 9.8635 22.8604 11.3228 25.2215 13.6839L25.6018 13.3036C23.144 10.8458 19.75 9.32568 15.9999 9.32568ZM8.48853 15.3968C10.4112 13.4741 13.065 12.2864 15.9999 12.2864C18.9348 12.2864 21.5886 13.4741 23.5113 15.3968L23.8916 15.0165C21.8721 12.9971 19.0831 11.7485 15.9999 11.7485C12.9167 11.7485 10.1277 12.9971 8.10823 15.0165L8.48853 15.3968ZM15.9999 14.7038C13.7373 14.7038 11.6859 15.6226 10.2014 17.1071L9.82114 16.7268C11.4022 15.1457 13.5888 14.166 15.9999 14.166C18.4109 14.166 20.5975 15.1457 22.1786 16.7268L21.7983 17.1071C20.3138 15.6226 18.2624 14.7038 15.9999 14.7038ZM15.9999 17.124C14.4041 17.124 12.9578 17.7713 11.9117 18.8173L11.5314 18.4371C12.6742 17.2942 14.2558 16.5862 15.9999 16.5862C17.744 16.5862 19.3255 17.2942 20.4683 18.4371L20.0881 18.8173C19.042 17.7713 17.5956 17.124 15.9999 17.124ZM15.7991 19.0141C14.8019 19.0646 13.9023 19.4894 13.2416 20.15L13.4346 20.3429L13.6215 20.5307C14.2322 19.9225 15.0711 19.5469 15.9998 19.5469C16.9286 19.5469 17.7675 19.9225 18.3782 20.5307L18.5651 20.3429L18.7581 20.15C18.0534 19.4453 17.0768 19.009 15.9999 19.009C15.9999 19.009 15.9998 19.009 15.9998 19.009C15.9325 19.009 15.8656 19.0108 15.7991 19.0141ZM15.9999 21.9643C15.7411 21.9643 15.5047 22.0707 15.3349 22.2405L14.9546 21.8602C15.2204 21.5944 15.5917 21.4265 15.9999 21.4265C16.4067 21.4265 16.779 21.5908 17.0463 21.8614L16.6637 22.2394C16.4954 22.069 16.26 21.9643 15.9999 21.9643Z" fill="#0B1F2F"/>
</svg>
